<svg width="32" height="32" viewBox="0 0 32 32" fill="none" xmlns="http://www.w3.org/2000/svg">
<g clip-path="url(#clip0_1_68)">
<path d="M31.9997 16.0978C31.9997 7.20581 24.8357 -0.00218964 15.9997 -0.00218964C7.15973 -0.000189636 -0.00427246 7.20581 -0.00427246 16.0998C-0.00427246 24.1338 5.84773 30.7938 13.4957 32.0018V20.7518H9.43573V16.0998H13.4997V12.5498C13.4997 8.51581 15.8897 6.28781 19.5437 6.28781C21.2957 6.28781 23.1257 6.60181 23.1257 6.60181V10.5618H21.1077C19.1217 10.5618 18.5017 11.8038 18.5017 13.0778V16.0978H22.9377L22.2297 20.7498H18.4997V31.9998C26.1477 30.7918 31.9997 24.1318 31.9997 16.0978Z" fill="black"/>
</g>
<defs>
<clipPath id="clip0_1_68">
<rect width="32" height="32" fill="white"/>
</clipPath>
</defs>
</svg>
